<mxfile host="app.diagrams.net" agent="Mozilla/5.0 (Windows NT 10.0; Win64; x64) AppleWebKit/537.36 (KHTML, like Gecko) Chrome/135.0.0.0 Safari/537.36" version="26.2.9">
  <diagram name="Page-1" id="Jm70DvIuMhAWRX0HeXlf">
    <mxGraphModel dx="1126" dy="2807" grid="1" gridSize="10" guides="1" tooltips="1" connect="1" arrows="1" fold="1" page="1" pageScale="1" pageWidth="850" pageHeight="1100" math="0" shadow="0">
      <root>
        <mxCell id="0" />
        <mxCell id="1" parent="0" />
        <mxCell id="NgCurA9kKK-X29A0gClI-1" style="edgeStyle=orthogonalEdgeStyle;rounded=0;orthogonalLoop=1;jettySize=auto;html=1;exitX=0.5;exitY=1;exitDx=0;exitDy=0;" edge="1" parent="1" source="NgCurA9kKK-X29A0gClI-2" target="NgCurA9kKK-X29A0gClI-10">
          <mxGeometry relative="1" as="geometry" />
        </mxCell>
        <mxCell id="NgCurA9kKK-X29A0gClI-2" value="Twitter" style="swimlane;fontStyle=0;align=center;verticalAlign=top;childLayout=stackLayout;horizontal=1;startSize=30;horizontalStack=0;resizeParent=1;resizeLast=0;collapsible=1;marginBottom=0;rounded=0;shadow=0;strokeWidth=1;fillColor=#fff2cc;strokeColor=#d6b656;" vertex="1" parent="1">
          <mxGeometry x="284" y="-1120" width="320" height="180" as="geometry">
            <mxRectangle x="110" y="-20" width="160" height="26" as="alternateBounds" />
          </mxGeometry>
        </mxCell>
        <mxCell id="NgCurA9kKK-X29A0gClI-3" value="" style="line;html=1;strokeWidth=1;align=left;verticalAlign=middle;spacingTop=-1;spacingLeft=3;spacingRight=3;rotatable=0;labelPosition=right;points=[];portConstraint=eastwest;" vertex="1" parent="NgCurA9kKK-X29A0gClI-2">
          <mxGeometry y="30" width="320" height="8" as="geometry" />
        </mxCell>
        <mxCell id="NgCurA9kKK-X29A0gClI-4" value="+ getUsuarios() : Usuario[*]" style="text;align=left;verticalAlign=top;spacingLeft=4;spacingRight=4;overflow=hidden;rotatable=0;points=[[0,0.5],[1,0.5]];portConstraint=eastwest;" vertex="1" parent="NgCurA9kKK-X29A0gClI-2">
          <mxGeometry y="38" width="320" height="26" as="geometry" />
        </mxCell>
        <mxCell id="NgCurA9kKK-X29A0gClI-5" value="+ getUsuario( screenName : String ) : Usuario" style="text;align=left;verticalAlign=top;spacingLeft=4;spacingRight=4;overflow=hidden;rotatable=0;points=[[0,0.5],[1,0.5]];portConstraint=eastwest;rounded=0;shadow=0;html=0;" vertex="1" parent="NgCurA9kKK-X29A0gClI-2">
          <mxGeometry y="64" width="320" height="26" as="geometry" />
        </mxCell>
        <mxCell id="NgCurA9kKK-X29A0gClI-6" value="- existeUsuario( screenName : String ) : boolean" style="text;align=left;verticalAlign=top;spacingLeft=4;spacingRight=4;overflow=hidden;rotatable=0;points=[[0,0.5],[1,0.5]];portConstraint=eastwest;rounded=0;shadow=0;html=0;" vertex="1" parent="NgCurA9kKK-X29A0gClI-2">
          <mxGeometry y="90" width="320" height="26" as="geometry" />
        </mxCell>
        <mxCell id="NgCurA9kKK-X29A0gClI-7" value="+Â registrarUsuario( screenName : String ) : Usuario" style="text;align=left;verticalAlign=top;spacingLeft=4;spacingRight=4;overflow=hidden;rotatable=0;points=[[0,0.5],[1,0.5]];portConstraint=eastwest;rounded=0;shadow=0;html=0;" vertex="1" parent="NgCurA9kKK-X29A0gClI-2">
          <mxGeometry y="116" width="320" height="26" as="geometry" />
        </mxCell>
        <mxCell id="NgCurA9kKK-X29A0gClI-8" style="edgeStyle=orthogonalEdgeStyle;rounded=0;orthogonalLoop=1;jettySize=auto;html=1;exitX=1;exitY=0.5;exitDx=0;exitDy=0;" edge="1" parent="NgCurA9kKK-X29A0gClI-2" source="NgCurA9kKK-X29A0gClI-5" target="NgCurA9kKK-X29A0gClI-5">
          <mxGeometry relative="1" as="geometry" />
        </mxCell>
        <mxCell id="NgCurA9kKK-X29A0gClI-54" value="+ eliminarUsuario( screenName : String ) : Boolean&#xa;" style="text;align=left;verticalAlign=top;spacingLeft=4;spacingRight=4;overflow=hidden;rotatable=0;points=[[0,0.5],[1,0.5]];portConstraint=eastwest;rounded=0;shadow=0;html=0;" vertex="1" parent="NgCurA9kKK-X29A0gClI-2">
          <mxGeometry y="142" width="320" height="26" as="geometry" />
        </mxCell>
        <mxCell id="NgCurA9kKK-X29A0gClI-9" style="edgeStyle=orthogonalEdgeStyle;rounded=0;orthogonalLoop=1;jettySize=auto;html=1;entryX=0.5;entryY=0;entryDx=0;entryDy=0;" edge="1" parent="1" source="NgCurA9kKK-X29A0gClI-10" target="NgCurA9kKK-X29A0gClI-20">
          <mxGeometry relative="1" as="geometry" />
        </mxCell>
        <mxCell id="NgCurA9kKK-X29A0gClI-10" value="Usuario" style="swimlane;fontStyle=0;align=center;verticalAlign=top;childLayout=stackLayout;horizontal=1;startSize=30;horizontalStack=0;resizeParent=1;resizeLast=0;collapsible=1;marginBottom=0;rounded=0;shadow=0;strokeWidth=1;fillColor=#fff2cc;strokeColor=#d6b656;" vertex="1" parent="1">
          <mxGeometry x="284" y="-900" width="320" height="266" as="geometry">
            <mxRectangle x="110" y="-20" width="160" height="26" as="alternateBounds" />
          </mxGeometry>
        </mxCell>
        <mxCell id="NgCurA9kKK-X29A0gClI-11" value="- screenName : String" style="text;align=left;verticalAlign=top;spacingLeft=4;spacingRight=4;overflow=hidden;rotatable=0;points=[[0,0.5],[1,0.5]];portConstraint=eastwest;" vertex="1" parent="NgCurA9kKK-X29A0gClI-10">
          <mxGeometry y="30" width="320" height="26" as="geometry" />
        </mxCell>
        <mxCell id="NgCurA9kKK-X29A0gClI-12" value="" style="line;html=1;strokeWidth=1;align=left;verticalAlign=middle;spacingTop=-1;spacingLeft=3;spacingRight=3;rotatable=0;labelPosition=right;points=[];portConstraint=eastwest;" vertex="1" parent="NgCurA9kKK-X29A0gClI-10">
          <mxGeometry y="56" width="320" height="8" as="geometry" />
        </mxCell>
        <mxCell id="NgCurA9kKK-X29A0gClI-13" value="+ getScreenName() : String" style="text;align=left;verticalAlign=top;spacingLeft=4;spacingRight=4;overflow=hidden;rotatable=0;points=[[0,0.5],[1,0.5]];portConstraint=eastwest;rounded=0;shadow=0;html=0;" vertex="1" parent="NgCurA9kKK-X29A0gClI-10">
          <mxGeometry y="64" width="320" height="26" as="geometry" />
        </mxCell>
        <mxCell id="NgCurA9kKK-X29A0gClI-14" value="+ getTweets() : Tweet[*]" style="text;align=left;verticalAlign=top;spacingLeft=4;spacingRight=4;overflow=hidden;rotatable=0;points=[[0,0.5],[1,0.5]];portConstraint=eastwest;rounded=0;shadow=0;html=0;" vertex="1" parent="NgCurA9kKK-X29A0gClI-10">
          <mxGeometry y="90" width="320" height="26" as="geometry" />
        </mxCell>
        <mxCell id="NgCurA9kKK-X29A0gClI-56" value="- verificarLongitud( texto : String ) : boolean&#xa;" style="text;align=left;verticalAlign=top;spacingLeft=4;spacingRight=4;overflow=hidden;rotatable=0;points=[[0,0.5],[1,0.5]];portConstraint=eastwest;rounded=0;shadow=0;html=0;" vertex="1" parent="NgCurA9kKK-X29A0gClI-10">
          <mxGeometry y="116" width="320" height="26" as="geometry" />
        </mxCell>
        <mxCell id="NgCurA9kKK-X29A0gClI-15" value="+ publicarTweet( texto : String ) : Tweet&#xa;" style="text;align=left;verticalAlign=top;spacingLeft=4;spacingRight=4;overflow=hidden;rotatable=0;points=[[0,0.5],[1,0.5]];portConstraint=eastwest;rounded=0;shadow=0;html=0;" vertex="1" parent="NgCurA9kKK-X29A0gClI-10">
          <mxGeometry y="142" width="320" height="26" as="geometry" />
        </mxCell>
        <mxCell id="NgCurA9kKK-X29A0gClI-16" style="edgeStyle=orthogonalEdgeStyle;rounded=0;orthogonalLoop=1;jettySize=auto;html=1;exitX=1;exitY=0.5;exitDx=0;exitDy=0;" edge="1" parent="NgCurA9kKK-X29A0gClI-10" source="NgCurA9kKK-X29A0gClI-13" target="NgCurA9kKK-X29A0gClI-13">
          <mxGeometry relative="1" as="geometry" />
        </mxCell>
        <mxCell id="NgCurA9kKK-X29A0gClI-17" value="+ publicarRetweet( tweet : Tweet ) : ReTweet" style="text;align=left;verticalAlign=top;spacingLeft=4;spacingRight=4;overflow=hidden;rotatable=0;points=[[0,0.5],[1,0.5]];portConstraint=eastwest;rounded=0;shadow=0;html=0;" vertex="1" parent="NgCurA9kKK-X29A0gClI-10">
          <mxGeometry y="168" width="320" height="26" as="geometry" />
        </mxCell>
        <mxCell id="NgCurA9kKK-X29A0gClI-18" value="+ eliminarTweet( tweet : Tweet ) : Boolean&#xa;" style="text;align=left;verticalAlign=top;spacingLeft=4;spacingRight=4;overflow=hidden;rotatable=0;points=[[0,0.5],[1,0.5]];portConstraint=eastwest;rounded=0;shadow=0;html=0;" vertex="1" parent="NgCurA9kKK-X29A0gClI-10">
          <mxGeometry y="194" width="320" height="26" as="geometry" />
        </mxCell>
        <mxCell id="NgCurA9kKK-X29A0gClI-19" value="+ eliminarTweets() : boolean" style="text;align=left;verticalAlign=top;spacingLeft=4;spacingRight=4;overflow=hidden;rotatable=0;points=[[0,0.5],[1,0.5]];portConstraint=eastwest;rounded=0;shadow=0;html=0;" vertex="1" parent="NgCurA9kKK-X29A0gClI-10">
          <mxGeometry y="220" width="320" height="46" as="geometry" />
        </mxCell>
        <mxCell id="NgCurA9kKK-X29A0gClI-20" value="&lt;&lt;abstract&gt;&gt;&#xa;Publicacion" style="swimlane;fontStyle=0;align=center;verticalAlign=top;childLayout=stackLayout;horizontal=1;startSize=40;horizontalStack=0;resizeParent=1;resizeLast=0;collapsible=1;marginBottom=0;rounded=0;shadow=0;strokeWidth=1;fillColor=#fff2cc;strokeColor=#d6b656;" vertex="1" parent="1">
          <mxGeometry x="324" y="-600" width="240" height="170" as="geometry">
            <mxRectangle x="110" y="-20" width="160" height="26" as="alternateBounds" />
          </mxGeometry>
        </mxCell>
        <mxCell id="NgCurA9kKK-X29A0gClI-21" value="- autor : Usuario" style="text;align=left;verticalAlign=top;spacingLeft=4;spacingRight=4;overflow=hidden;rotatable=0;points=[[0,0.5],[1,0.5]];portConstraint=eastwest;" vertex="1" parent="NgCurA9kKK-X29A0gClI-20">
          <mxGeometry y="40" width="240" height="26" as="geometry" />
        </mxCell>
        <mxCell id="NgCurA9kKK-X29A0gClI-22" value="" style="line;html=1;strokeWidth=1;align=left;verticalAlign=middle;spacingTop=-1;spacingLeft=3;spacingRight=3;rotatable=0;labelPosition=right;points=[];portConstraint=eastwest;" vertex="1" parent="NgCurA9kKK-X29A0gClI-20">
          <mxGeometry y="66" width="240" height="8" as="geometry" />
        </mxCell>
        <mxCell id="NgCurA9kKK-X29A0gClI-23" value="+ getAutor() : Usuario" style="text;align=left;verticalAlign=top;spacingLeft=4;spacingRight=4;overflow=hidden;rotatable=0;points=[[0,0.5],[1,0.5]];portConstraint=eastwest;rounded=0;shadow=0;html=0;" vertex="1" parent="NgCurA9kKK-X29A0gClI-20">
          <mxGeometry y="74" width="240" height="26" as="geometry" />
        </mxCell>
        <mxCell id="NgCurA9kKK-X29A0gClI-24" value="+ &lt;&lt;abstract&gt;&gt; getContenido() : String" style="text;align=left;verticalAlign=top;spacingLeft=4;spacingRight=4;overflow=hidden;rotatable=0;points=[[0,0.5],[1,0.5]];portConstraint=eastwest;rounded=0;shadow=0;html=0;" vertex="1" parent="NgCurA9kKK-X29A0gClI-20">
          <mxGeometry y="100" width="240" height="26" as="geometry" />
        </mxCell>
        <mxCell id="NgCurA9kKK-X29A0gClI-25" value="+ &lt;&lt;abstract&gt;&gt; eliminar()Â &#xa;" style="text;align=left;verticalAlign=top;spacingLeft=4;spacingRight=4;overflow=hidden;rotatable=0;points=[[0,0.5],[1,0.5]];portConstraint=eastwest;rounded=0;shadow=0;html=0;" vertex="1" parent="NgCurA9kKK-X29A0gClI-20">
          <mxGeometry y="126" width="240" height="26" as="geometry" />
        </mxCell>
        <mxCell id="NgCurA9kKK-X29A0gClI-26" style="edgeStyle=orthogonalEdgeStyle;rounded=0;orthogonalLoop=1;jettySize=auto;html=1;exitX=1;exitY=0.5;exitDx=0;exitDy=0;" edge="1" parent="NgCurA9kKK-X29A0gClI-20" source="NgCurA9kKK-X29A0gClI-23" target="NgCurA9kKK-X29A0gClI-23">
          <mxGeometry relative="1" as="geometry" />
        </mxCell>
        <mxCell id="NgCurA9kKK-X29A0gClI-27" style="edgeStyle=orthogonalEdgeStyle;rounded=0;orthogonalLoop=1;jettySize=auto;html=1;entryX=0.5;entryY=1;entryDx=0;entryDy=0;endSize=12;startSize=12;endArrow=block;endFill=0;" edge="1" parent="1" source="NgCurA9kKK-X29A0gClI-28" target="NgCurA9kKK-X29A0gClI-20">
          <mxGeometry relative="1" as="geometry">
            <Array as="points">
              <mxPoint x="298" y="-390" />
              <mxPoint x="444" y="-390" />
            </Array>
          </mxGeometry>
        </mxCell>
        <mxCell id="NgCurA9kKK-X29A0gClI-28" value="Tweet" style="swimlane;fontStyle=0;align=center;verticalAlign=top;childLayout=stackLayout;horizontal=1;startSize=30;horizontalStack=0;resizeParent=1;resizeLast=0;collapsible=1;marginBottom=0;rounded=0;shadow=0;strokeWidth=1;fillColor=#fff2cc;strokeColor=#d6b656;" vertex="1" parent="1">
          <mxGeometry x="190" y="-360" width="215" height="168" as="geometry">
            <mxRectangle x="110" y="-20" width="160" height="26" as="alternateBounds" />
          </mxGeometry>
        </mxCell>
        <mxCell id="NgCurA9kKK-X29A0gClI-29" value="- autor : Usuario" style="text;align=left;verticalAlign=top;spacingLeft=4;spacingRight=4;overflow=hidden;rotatable=0;points=[[0,0.5],[1,0.5]];portConstraint=eastwest;" vertex="1" parent="NgCurA9kKK-X29A0gClI-28">
          <mxGeometry y="30" width="215" height="26" as="geometry" />
        </mxCell>
        <mxCell id="NgCurA9kKK-X29A0gClI-57" value="- contenido : Usuario" style="text;align=left;verticalAlign=top;spacingLeft=4;spacingRight=4;overflow=hidden;rotatable=0;points=[[0,0.5],[1,0.5]];portConstraint=eastwest;" vertex="1" parent="NgCurA9kKK-X29A0gClI-28">
          <mxGeometry y="56" width="215" height="26" as="geometry" />
        </mxCell>
        <mxCell id="NgCurA9kKK-X29A0gClI-30" value="" style="line;html=1;strokeWidth=1;align=left;verticalAlign=middle;spacingTop=-1;spacingLeft=3;spacingRight=3;rotatable=0;labelPosition=right;points=[];portConstraint=eastwest;" vertex="1" parent="NgCurA9kKK-X29A0gClI-28">
          <mxGeometry y="82" width="215" height="8" as="geometry" />
        </mxCell>
        <mxCell id="NgCurA9kKK-X29A0gClI-31" value="+ getAutor() : Usuario" style="text;align=left;verticalAlign=top;spacingLeft=4;spacingRight=4;overflow=hidden;rotatable=0;points=[[0,0.5],[1,0.5]];portConstraint=eastwest;rounded=0;shadow=0;html=0;" vertex="1" parent="NgCurA9kKK-X29A0gClI-28">
          <mxGeometry y="90" width="215" height="26" as="geometry" />
        </mxCell>
        <mxCell id="NgCurA9kKK-X29A0gClI-32" value="+ getContenido() : String" style="text;align=left;verticalAlign=top;spacingLeft=4;spacingRight=4;overflow=hidden;rotatable=0;points=[[0,0.5],[1,0.5]];portConstraint=eastwest;rounded=0;shadow=0;html=0;" vertex="1" parent="NgCurA9kKK-X29A0gClI-28">
          <mxGeometry y="116" width="215" height="26" as="geometry" />
        </mxCell>
        <mxCell id="NgCurA9kKK-X29A0gClI-33" value="+ eliminar()Â " style="text;align=left;verticalAlign=top;spacingLeft=4;spacingRight=4;overflow=hidden;rotatable=0;points=[[0,0.5],[1,0.5]];portConstraint=eastwest;rounded=0;shadow=0;html=0;" vertex="1" parent="NgCurA9kKK-X29A0gClI-28">
          <mxGeometry y="142" width="215" height="26" as="geometry" />
        </mxCell>
        <mxCell id="NgCurA9kKK-X29A0gClI-34" style="edgeStyle=orthogonalEdgeStyle;rounded=0;orthogonalLoop=1;jettySize=auto;html=1;exitX=1;exitY=0.5;exitDx=0;exitDy=0;" edge="1" parent="NgCurA9kKK-X29A0gClI-28" source="NgCurA9kKK-X29A0gClI-31" target="NgCurA9kKK-X29A0gClI-31">
          <mxGeometry relative="1" as="geometry" />
        </mxCell>
        <mxCell id="NgCurA9kKK-X29A0gClI-35" style="edgeStyle=orthogonalEdgeStyle;rounded=0;orthogonalLoop=1;jettySize=auto;html=1;endSize=12;startSize=12;endArrow=block;endFill=0;" edge="1" parent="1" source="NgCurA9kKK-X29A0gClI-37" target="NgCurA9kKK-X29A0gClI-20">
          <mxGeometry relative="1" as="geometry">
            <Array as="points">
              <mxPoint x="604" y="-390" />
              <mxPoint x="444" y="-390" />
            </Array>
          </mxGeometry>
        </mxCell>
        <mxCell id="NgCurA9kKK-X29A0gClI-36" style="edgeStyle=orthogonalEdgeStyle;rounded=0;orthogonalLoop=1;jettySize=auto;html=1;" edge="1" parent="1" source="NgCurA9kKK-X29A0gClI-37">
          <mxGeometry relative="1" as="geometry">
            <mxPoint x="564" y="-480" as="targetPoint" />
            <Array as="points">
              <mxPoint x="764" y="-263" />
              <mxPoint x="764" y="-480" />
            </Array>
          </mxGeometry>
        </mxCell>
        <mxCell id="NgCurA9kKK-X29A0gClI-37" value="ReTweet" style="swimlane;fontStyle=0;align=center;verticalAlign=top;childLayout=stackLayout;horizontal=1;startSize=30;horizontalStack=0;resizeParent=1;resizeLast=0;collapsible=1;marginBottom=0;rounded=0;shadow=0;strokeWidth=1;fillColor=#fff2cc;strokeColor=#d6b656;" vertex="1" parent="1">
          <mxGeometry x="484" y="-360" width="240" height="170" as="geometry">
            <mxRectangle x="110" y="-20" width="160" height="26" as="alternateBounds" />
          </mxGeometry>
        </mxCell>
        <mxCell id="NgCurA9kKK-X29A0gClI-38" value="- autor : Usuario" style="text;align=left;verticalAlign=top;spacingLeft=4;spacingRight=4;overflow=hidden;rotatable=0;points=[[0,0.5],[1,0.5]];portConstraint=eastwest;" vertex="1" parent="NgCurA9kKK-X29A0gClI-37">
          <mxGeometry y="30" width="240" height="26" as="geometry" />
        </mxCell>
        <mxCell id="NgCurA9kKK-X29A0gClI-39" value="- contenido : Usuario" style="text;align=left;verticalAlign=top;spacingLeft=4;spacingRight=4;overflow=hidden;rotatable=0;points=[[0,0.5],[1,0.5]];portConstraint=eastwest;" vertex="1" parent="NgCurA9kKK-X29A0gClI-37">
          <mxGeometry y="56" width="240" height="26" as="geometry" />
        </mxCell>
        <mxCell id="NgCurA9kKK-X29A0gClI-41" value="" style="line;html=1;strokeWidth=1;align=left;verticalAlign=middle;spacingTop=-1;spacingLeft=3;spacingRight=3;rotatable=0;labelPosition=right;points=[];portConstraint=eastwest;" vertex="1" parent="NgCurA9kKK-X29A0gClI-37">
          <mxGeometry y="82" width="240" height="8" as="geometry" />
        </mxCell>
        <mxCell id="NgCurA9kKK-X29A0gClI-42" value="+ getAutor()" style="text;align=left;verticalAlign=top;spacingLeft=4;spacingRight=4;overflow=hidden;rotatable=0;points=[[0,0.5],[1,0.5]];portConstraint=eastwest;rounded=0;shadow=0;html=0;" vertex="1" parent="NgCurA9kKK-X29A0gClI-37">
          <mxGeometry y="90" width="240" height="26" as="geometry" />
        </mxCell>
        <mxCell id="NgCurA9kKK-X29A0gClI-43" value="+ getContenido() : String" style="text;align=left;verticalAlign=top;spacingLeft=4;spacingRight=4;overflow=hidden;rotatable=0;points=[[0,0.5],[1,0.5]];portConstraint=eastwest;rounded=0;shadow=0;html=0;" vertex="1" parent="NgCurA9kKK-X29A0gClI-37">
          <mxGeometry y="116" width="240" height="26" as="geometry" />
        </mxCell>
        <mxCell id="NgCurA9kKK-X29A0gClI-44" value="+ eliminar()Â " style="text;align=left;verticalAlign=top;spacingLeft=4;spacingRight=4;overflow=hidden;rotatable=0;points=[[0,0.5],[1,0.5]];portConstraint=eastwest;rounded=0;shadow=0;html=0;" vertex="1" parent="NgCurA9kKK-X29A0gClI-37">
          <mxGeometry y="142" width="240" height="26" as="geometry" />
        </mxCell>
        <mxCell id="NgCurA9kKK-X29A0gClI-45" style="edgeStyle=orthogonalEdgeStyle;rounded=0;orthogonalLoop=1;jettySize=auto;html=1;exitX=1;exitY=0.5;exitDx=0;exitDy=0;" edge="1" parent="NgCurA9kKK-X29A0gClI-37" source="NgCurA9kKK-X29A0gClI-42" target="NgCurA9kKK-X29A0gClI-42">
          <mxGeometry relative="1" as="geometry" />
        </mxCell>
        <mxCell id="NgCurA9kKK-X29A0gClI-46" value="- TweetOrigen" style="text;html=1;align=center;verticalAlign=middle;whiteSpace=wrap;rounded=0;fontStyle=0" vertex="1" parent="1">
          <mxGeometry x="680" y="-430" width="80" height="30" as="geometry" />
        </mxCell>
        <mxCell id="NgCurA9kKK-X29A0gClI-48" value="- Tweets" style="text;html=1;align=center;verticalAlign=middle;whiteSpace=wrap;rounded=0;" vertex="1" parent="1">
          <mxGeometry x="380" y="-630" width="54" height="20" as="geometry" />
        </mxCell>
        <mxCell id="NgCurA9kKK-X29A0gClI-49" value="- Usuarios" style="text;html=1;align=center;verticalAlign=middle;whiteSpace=wrap;rounded=0;" vertex="1" parent="1">
          <mxGeometry x="370" y="-930" width="64" height="20" as="geometry" />
        </mxCell>
        <mxCell id="NgCurA9kKK-X29A0gClI-50" value="&lt;font style=&quot;font-size: 20px;&quot;&gt;*&lt;/font&gt;" style="text;html=1;align=center;verticalAlign=middle;whiteSpace=wrap;rounded=0;" vertex="1" parent="1">
          <mxGeometry x="450" y="-930" width="20" height="30" as="geometry" />
        </mxCell>
        <mxCell id="NgCurA9kKK-X29A0gClI-51" value="&lt;font style=&quot;font-size: 20px;&quot;&gt;*&lt;/font&gt;" style="text;html=1;align=center;verticalAlign=middle;whiteSpace=wrap;rounded=0;" vertex="1" parent="1">
          <mxGeometry x="450" y="-630" width="20" height="30" as="geometry" />
        </mxCell>
        <mxCell id="NgCurA9kKK-X29A0gClI-52" value="&lt;b style=&quot;&quot;&gt;&lt;i&gt;&lt;font style=&quot;font-size: 20px;&quot;&gt;ejercicio_01_RedSocial&lt;/font&gt;&lt;/i&gt;&lt;/b&gt;" style="text;html=1;align=center;verticalAlign=middle;resizable=0;points=[];autosize=1;strokeColor=none;fillColor=none;" vertex="1" parent="1">
          <mxGeometry x="590" y="-120" width="250" height="40" as="geometry" />
        </mxCell>
        <mxCell id="NgCurA9kKK-X29A0gClI-53" value="&lt;font style=&quot;font-size: 1px;&quot;&gt;1&lt;/font&gt;" style="text;html=1;align=center;verticalAlign=middle;whiteSpace=wrap;rounded=0;" vertex="1" parent="1">
          <mxGeometry x="150" y="-1160" width="20" height="30" as="geometry" />
        </mxCell>
        <mxCell id="NgCurA9kKK-X29A0gClI-59" value="1" style="text;html=1;align=center;verticalAlign=middle;resizable=0;points=[];autosize=1;strokeColor=none;fillColor=none;" vertex="1" parent="1">
          <mxGeometry x="760" y="-430" width="30" height="30" as="geometry" />
        </mxCell>
      </root>
    </mxGraphModel>
  </diagram>
</mxfile>
